<svg width="16" height="16" viewBox="0 0 16 16" fill="none" xmlns="http://www.w3.org/2000/svg">
<path d="M9.05853 6.3876C9.05853 6.16497 9.23901 5.9845 9.46163 5.9845H14.2488V6.7907H9.46163C9.23901 6.7907 9.05853 6.61022 9.05853 6.3876V6.3876Z" fill="url(#paint0_linear_2_19)"/>
<path d="M1 9.89147C1 9.68597 1.16659 9.51938 1.37209 9.51938H6.36449C6.56999 9.51938 6.73659 9.68597 6.73659 9.89147V9.89147C6.73659 10.097 6.56999 10.2636 6.36449 10.2636H1.37209C1.16659 10.2636 1 10.097 1 9.89147V9.89147Z" fill="url(#paint1_linear_2_19)"/>
<g filter="url(#filter0_b_2_19)">
<path d="M4.30251 12C3.59308 12 2.99782 11.9037 2.51671 11.7111C2.0356 11.5111 1.66458 11.2556 1.40364 10.9444C1.15086 10.6259 1.01631 10.2889 1 9.93333C1 9.87407 1.02446 9.82222 1.07339 9.77778C1.13047 9.72593 1.1957 9.7 1.26909 9.7H1.8929C1.99075 9.7 2.06414 9.72222 2.11307 9.76667C2.16199 9.81111 2.19461 9.86296 2.21092 9.92222C2.25169 10.1 2.34955 10.2778 2.50448 10.4556C2.66756 10.6259 2.89181 10.7704 3.17721 10.8889C3.47077 11 3.84587 11.0556 4.30251 11.0556C5.00379 11.0556 5.51751 10.9444 5.84368 10.7222C6.17801 10.4926 6.34518 10.1889 6.34518 9.81111C6.34518 9.55185 6.25548 9.34444 6.07608 9.18889C5.90484 9.02593 5.63983 8.88148 5.28103 8.75556C4.92224 8.62963 4.45744 8.49259 3.88664 8.34444C3.29137 8.18889 2.79803 8.01852 2.40663 7.83333C2.01522 7.64815 1.72166 7.41852 1.52596 7.14444C1.33841 6.87037 1.24463 6.52222 1.24463 6.1C1.24463 5.7 1.36287 5.34444 1.59934 5.03333C1.83582 4.71481 2.17423 4.46296 2.61456 4.27778C3.06305 4.09259 3.60532 4 4.24135 4C4.74692 4 5.18726 4.06296 5.56236 4.18889C5.94561 4.30741 6.26363 4.47037 6.51642 4.67778C6.7692 4.87778 6.96083 5.0963 7.0913 5.33333C7.22177 5.56296 7.29108 5.78889 7.29924 6.01111C7.29924 6.06296 7.27885 6.11481 7.23808 6.16667C7.19731 6.21111 7.13207 6.23333 7.04237 6.23333H6.3941C6.33702 6.23333 6.27586 6.21852 6.21063 6.18889C6.15355 6.15926 6.1087 6.1037 6.07608 6.02222C6.02716 5.71852 5.83961 5.46296 5.51343 5.25556C5.18726 5.04815 4.76323 4.94444 4.24135 4.94444C3.71132 4.94444 3.27914 5.03704 2.94481 5.22222C2.61864 5.40741 2.45555 5.6963 2.45555 6.08889C2.45555 6.34074 2.53302 6.55185 2.68795 6.72222C2.84288 6.88519 3.08751 7.02963 3.42184 7.15556C3.75617 7.28148 4.19243 7.41481 4.73062 7.55556C5.38296 7.71852 5.91707 7.89259 6.33294 8.07778C6.74882 8.25556 7.0546 8.48148 7.25031 8.75556C7.45417 9.02222 7.5561 9.36667 7.5561 9.78889C7.5561 10.2556 7.42155 10.6556 7.15246 10.9889C6.88336 11.3148 6.50419 11.5667 6.01493 11.7444C5.53382 11.9148 4.96301 12 4.30251 12Z" fill="url(#paint2_linear_2_19)"/>
</g>
<g filter="url(#filter1_b_2_19)">
<path d="M8.79915 11.876C8.70766 11.876 8.63696 11.8536 8.58705 11.809C8.53714 11.7569 8.51219 11.6936 8.51219 11.6192V4.32992C8.51219 4.24806 8.53714 4.1848 8.58705 4.14015C8.63696 4.08806 8.70766 4.06201 8.79915 4.06201H11.9682C12.5837 4.06201 13.116 4.15131 13.5652 4.32992C14.0227 4.50852 14.3762 4.77643 14.6257 5.13364C14.8752 5.48341 15 5.92248 15 6.45085C15 6.97922 14.8752 7.41829 14.6257 7.76806C14.3762 8.11783 14.0227 8.38201 13.5652 8.56062C13.116 8.73922 12.5837 8.82852 11.9682 8.82852H9.75985V11.6192C9.75985 11.6936 9.73073 11.7569 9.67251 11.809C9.6226 11.8536 9.5519 11.876 9.46041 11.876H8.79915ZM9.74737 7.89085H11.9058C12.5213 7.89085 12.983 7.76806 13.2907 7.52248C13.5985 7.2769 13.7523 6.91969 13.7523 6.45085C13.7523 5.98945 13.6026 5.63224 13.3032 5.37922C13.0037 5.1262 12.538 4.99969 11.9058 4.99969H9.74737V7.89085Z" fill="url(#paint3_linear_2_19)"/>
</g>
<defs>
<filter id="filter0_b_2_19" x="-49" y="-46" width="106.556" height="108" filterUnits="userSpaceOnUse" color-interpolation-filters="sRGB">
<feFlood flood-opacity="0" result="BackgroundImageFix"/>
<feGaussianBlur in="BackgroundImageFix" stdDeviation="25"/>
<feComposite in2="SourceAlpha" operator="in" result="effect1_backgroundBlur_2_19"/>
<feBlend mode="normal" in="SourceGraphic" in2="effect1_backgroundBlur_2_19" result="shape"/>
</filter>
<filter id="filter1_b_2_19" x="-41.4878" y="-45.938" width="106.488" height="107.814" filterUnits="userSpaceOnUse" color-interpolation-filters="sRGB">
<feFlood flood-opacity="0" result="BackgroundImageFix"/>
<feGaussianBlur in="BackgroundImageFix" stdDeviation="25"/>
<feComposite in2="SourceAlpha" operator="in" result="effect1_backgroundBlur_2_19"/>
<feBlend mode="normal" in="SourceGraphic" in2="effect1_backgroundBlur_2_19" result="shape"/>
</filter>
<linearGradient id="paint0_linear_2_19" x1="9.27225" y1="6.3876" x2="15.1" y2="6.52259" gradientUnits="userSpaceOnUse">
<stop stop-color="#6EDEA6"/>
<stop offset="1" stop-color="#8AEABB" stop-opacity="0"/>
</linearGradient>
<linearGradient id="paint1_linear_2_19" x1="1.23621" y1="9.89147" x2="6.32701" y2="9.88053" gradientUnits="userSpaceOnUse">
<stop offset="0.0981117" stop-color="#73E0AB" stop-opacity="0"/>
<stop offset="1" stop-color="#52CB90"/>
</linearGradient>
<linearGradient id="paint2_linear_2_19" x1="2.18995" y1="5.46032" x2="6.92158" y2="12.4053" gradientUnits="userSpaceOnUse">
<stop stop-color="#A3F4CC"/>
<stop offset="0.998575" stop-color="#43FFA1" stop-opacity="0.65"/>
</linearGradient>
<linearGradient id="paint3_linear_2_19" x1="14.1712" y1="4.58028" x2="8.87747" y2="12.0518" gradientUnits="userSpaceOnUse">
<stop stop-color="#A3F4CC"/>
<stop offset="1" stop-color="#43FFA1" stop-opacity="0.65"/>
</linearGradient>
</defs>
</svg>
