<svg width="205" height="129" viewBox="0 0 205 129" fill="none" xmlns="http://www.w3.org/2000/svg">
<path d="M118 38.5C118 34.9101 120.91 32 124.5 32H194V45H124.5C120.91 45 118 42.0899 118 38.5V38.5Z" fill="url(#paint0_linear_2_11)"/>
<path d="M0 95C0 91.6863 2.68629 89 6 89H78C81.3137 89 84 91.6863 84 95V95C84 98.3137 81.3137 101 78 101H6C2.68629 101 0 98.3137 0 95V95Z" fill="url(#paint1_linear_2_11)"/>
<g filter="url(#filter0_b_2_11)">
<path d="M48.3582 129C37.9701 129 29.2537 127.447 22.209 124.342C15.1642 121.117 9.73134 116.996 5.91045 111.979C2.20896 106.843 0.238806 101.408 0 95.675C0 94.7194 0.358209 93.8833 1.07463 93.1667C1.91045 92.3306 2.86567 91.9125 3.9403 91.9125H13.0746C14.5075 91.9125 15.5821 92.2708 16.2985 92.9875C17.0149 93.7042 17.4925 94.5403 17.7313 95.4958C18.3284 98.3625 19.7612 101.229 22.0299 104.096C24.4179 106.843 27.7015 109.172 31.8806 111.083C36.1791 112.875 41.6716 113.771 48.3582 113.771C58.6269 113.771 66.1493 111.979 70.9254 108.396C75.8209 104.693 78.2687 99.7958 78.2687 93.7042C78.2687 89.5236 76.9552 86.1792 74.3284 83.6708C71.8209 81.0431 67.9403 78.7139 62.6866 76.6833C57.4328 74.6528 50.6269 72.4431 42.2687 70.0542C33.5522 67.5458 26.3284 64.7986 20.597 61.8125C14.8657 58.8264 10.5672 55.1236 7.70149 50.7042C4.95522 46.2847 3.58209 40.6708 3.58209 33.8625C3.58209 27.4125 5.31343 21.6792 8.77612 16.6625C12.2388 11.5264 17.194 7.46528 23.6418 4.47916C30.209 1.49305 38.1493 0 47.4627 0C54.8657 0 61.3134 1.01528 66.806 3.04584C72.4179 4.95694 77.0746 7.58472 80.7761 10.9292C84.4776 14.1542 87.2836 17.6778 89.194 21.5C91.1045 25.2028 92.1194 28.8458 92.2388 32.4292C92.2388 33.2653 91.9403 34.1014 91.3433 34.9375C90.7463 35.6542 89.7911 36.0125 88.4776 36.0125H78.9851C78.1493 36.0125 77.2537 35.7736 76.2985 35.2958C75.4627 34.8181 74.806 33.9222 74.3284 32.6083C73.6119 27.7111 70.8657 23.5903 66.0896 20.2458C61.3134 16.9014 55.1045 15.2292 47.4627 15.2292C39.7015 15.2292 33.3731 16.7222 28.4776 19.7083C23.7015 22.6944 21.3134 27.3528 21.3134 33.6833C21.3134 37.7444 22.4478 41.1486 24.7164 43.8958C26.9851 46.5236 30.5672 48.8528 35.4627 50.8833C40.3582 52.9139 46.7463 55.0639 54.6269 57.3333C64.1791 59.9611 72 62.7681 78.0896 65.7542C84.1791 68.6208 88.6567 72.2639 91.5224 76.6833C94.5075 80.9833 96 86.5375 96 93.3458C96 100.871 94.0299 107.321 90.0896 112.696C86.1493 117.951 80.597 122.013 73.4328 124.879C66.3881 127.626 58.0299 129 48.3582 129Z" fill="url(#paint2_linear_2_11)"/>
</g>
<g filter="url(#filter1_b_2_11)">
<path d="M114.202 127C112.862 127 111.827 126.64 111.096 125.92C110.365 125.08 110 124.06 110 122.86V5.32C110 4 110.365 2.98 111.096 2.26001C111.827 1.42 112.862 1 114.202 1H160.606C169.619 1 177.413 2.44 183.99 5.32C190.689 8.2 195.865 12.52 199.519 18.28C203.173 23.92 205 31 205 39.52C205 48.04 203.173 55.12 199.519 60.76C195.865 66.4 190.689 70.66 183.99 73.54C177.413 76.42 169.619 77.86 160.606 77.86H128.269V122.86C128.269 124.06 127.843 125.08 126.99 125.92C126.26 126.64 125.224 127 123.885 127H114.202ZM128.087 62.74H159.692C168.705 62.74 175.465 60.76 179.971 56.8C184.478 52.84 186.731 47.08 186.731 39.52C186.731 32.08 184.538 26.32 180.154 22.24C175.769 18.16 168.949 16.12 159.692 16.12H128.087V62.74Z" fill="url(#paint3_linear_2_11)"/>
</g>
<defs>
<filter id="filter0_b_2_11" x="-50" y="-50" width="196" height="229" filterUnits="userSpaceOnUse" color-interpolation-filters="sRGB">
<feFlood flood-opacity="0" result="BackgroundImageFix"/>
<feGaussianBlur in="BackgroundImageFix" stdDeviation="25"/>
<feComposite in2="SourceAlpha" operator="in" result="effect1_backgroundBlur_2_11"/>
<feBlend mode="normal" in="SourceGraphic" in2="effect1_backgroundBlur_2_11" result="shape"/>
</filter>
<filter id="filter1_b_2_11" x="60" y="-49" width="195" height="226" filterUnits="userSpaceOnUse" color-interpolation-filters="sRGB">
<feFlood flood-opacity="0" result="BackgroundImageFix"/>
<feGaussianBlur in="BackgroundImageFix" stdDeviation="25"/>
<feComposite in2="SourceAlpha" operator="in" result="effect1_backgroundBlur_2_11"/>
<feBlend mode="normal" in="SourceGraphic" in2="effect1_backgroundBlur_2_11" result="shape"/>
</filter>
<linearGradient id="paint0_linear_2_11" x1="121.129" y1="38.5" x2="206.473" y2="40.2952" gradientUnits="userSpaceOnUse">
<stop stop-color="#6EDEA6"/>
<stop offset="1" stop-color="#8AEABB" stop-opacity="0"/>
</linearGradient>
<linearGradient id="paint1_linear_2_11" x1="3.45882" y1="95" x2="78.0026" y2="94.8546" gradientUnits="userSpaceOnUse">
<stop offset="0.0981117" stop-color="#73E0AB" stop-opacity="0"/>
<stop offset="1" stop-color="#52CB90"/>
</linearGradient>
<linearGradient id="paint2_linear_2_11" x1="17.4243" y1="23.5476" x2="96.1373" y2="128.462" gradientUnits="userSpaceOnUse">
<stop stop-color="#A3F4CC"/>
<stop offset="0.998575" stop-color="#43FFA1" stop-opacity="0.65"/>
</linearGradient>
<linearGradient id="paint3_linear_2_11" x1="192.864" y1="9.35714" x2="105.101" y2="121.84" gradientUnits="userSpaceOnUse">
<stop stop-color="#A3F4CC"/>
<stop offset="1" stop-color="#43FFA1" stop-opacity="0.65"/>
</linearGradient>
</defs>
</svg>
